<svg
    viewBox="0 0 656 1000"
    height="1000"
    width="656">
    <defs>
        <style type="text/css">
            .cls-1 {
                fill: #181818;
                fill-rule: evenodd;
            }
        </style>
    </defs>
    <path
        d="M 239.88175,3.4381553e-4 C 232.30272,-0.02767728 224.19094,1.6578113 215.54449,4.7956208 200.02843,10.423454 184.02403,25.192145 193.95334,63.855161 c 9.9293,38.663019 44.6573,76.903059 58.7416,93.077699 16.1131,45.04562 40.28423,72.70914 56.43456,94.31646 5.92322,33.71821 24.51083,72.98012 31.84005,87.09131 7.32922,14.1112 4.34339,17.47862 -0.81095,26.44269 -43.83215,-34.72268 -51.09375,-57.38858 -63.07049,-66.74152 -11.97673,-9.35294 -25.71619,-19.20054 -33.33892,-29.31256 -7.62272,-10.11202 -15.02542,-18.22198 -19.96644,-25.54305 -4.94104,-7.32106 -20.47429,-32.70015 -37.22596,-44.09357 -32.58844,-22.16695 -37.45149,-40.15699 -45.48658,-46.62713 -43.096185,-34.70114 -91.949295,9.50921 -70.643165,49.51103 21.30613,40.00181 44.750945,67.1708 63.968125,83.35262 19.27158,46.449 29.32138,29.77747 45.32997,64.051 16.00859,34.27354 35.71068,65.76823 59.25895,74.47114 2.04742,22.44245 14.62127,37.30622 18.96812,56.29334 -12.7599,5.58335 -12.44791,14.92921 -19.6812,25.34688 -11.84215,6.88771 -21.65597,26.00788 -25.27406,36.24904 -3.61807,10.24117 -1.72759,4.21207 -9.14988,5.12038 -0.98792,-24.47721 -15.2699,-74.96439 -26.36466,-90.74873 C 174.62746,425.74743 135.89443,348.76666 80.874472,324.24067 12.635009,293.82139 -10.778818,358.04157 4.4594831,385.24802 37.248386,443.78926 71.79729,533.69703 71.79729,533.69703 c -0.286353,15.20606 16.199664,72.20681 23.716443,106.27802 7.516777,34.07121 21.836767,43.49323 36.473707,61.33527 14.63697,17.84204 66.11502,75.0336 105.28244,103.4698 31.1295,22.60173 54.23016,29.46875 63.87025,47.73697 17.74819,33.63212 27.45974,83.46919 34.90493,118.1359 19.44913,80.85311 294.40514,-27.2178 286.97427,-62.78422 -4.2409,-24.34949 -7.02369,-38.14348 -9.98602,-62.90193 -6.3184,-52.79861 15.70795,-123.5853 24.04082,-164.91157 8.33289,-41.32626 -1.34986,-76.67996 -11.22762,-122.34262 -9.87776,-45.66266 -2.76598,-92.69247 1.36466,-102.79157 11.6417,-28.46347 22.26686,-53.74923 22.78802,-73.5715 0.52117,-19.82226 2.70523,-34.81558 4.86578,-56.09716 2.16053,-21.28303 -21.93808,-35.53957 -48.47875,-49.48862 -26.54068,-13.94905 -31.85517,-15.09716 -52.56711,-17.09316 -7.97638,-36.14469 -20.25701,-32.59346 -43.53468,-62.52917 -23.27767,-29.93572 -36.36433,-30.66903 -55.05034,-38.5612 -20.98254,-19.74477 -58.99582,-19.38346 -65.98714,-22.82732 -15.91122,-7.84912 -40.2321,-7.81089 -40.2321,-7.81089 0,0 -2.27059,-10.62732 -22.08053,-32.339391 C 307.1244,72.890596 296.71179,57.707275 287.65299,38.230838 275.14759,11.344237 259.25036,0.07195303 239.88175,3.4381553e-4 Z M 228.09204,10.896917 c 11.76362,0.357579 21.60253,13.673654 25.8585,30.915664 5.04412,20.434976 38.73566,55.104063 26.70023,69.017239 -12.03544,13.91317 -32.2165,23.85087 -42.64262,17.00908 -15.5261,-10.19238 -35.32196,-59.592644 -37.51399,-75.889255 -2.19204,-16.29661 6.24808,-34.229478 20.88646,-39.861616 2.28726,-0.880022 4.53296,-1.25733 6.71142,-1.191112 z m 3.09843,23.365414 -4.49943,1.073403 c 0.88673,6.795874 2.05667,13.557319 3.51229,20.288142 l -0.0783,0.02802 c -3.2587,-6.151107 -6.26653,-12.479864 -9.02124,-18.984924 l -3.24944,0.776324 c 0.47343,6.983374 1.23914,13.968989 2.29866,20.952363 l -0.081,0.02523 c -2.84254,-6.409398 -5.43011,-12.956653 -7.76006,-19.646342 l -4.49665,1.073402 a 258.49843,259.07119 0 0 0 14.1051,30.725084 l 3.84787,-1.454558 c -1.45763,-7.012073 -2.6143,-14.030594 -3.46764,-21.056059 l 0.0839,-0.02523 c 2.98572,6.418963 6.2089,12.651265 9.67282,18.699058 l 3.84787,-1.460163 a 241.0323,241.56636 0 0 1 -4.71476,-31.013757 z m 4.46868,42.235433 a 7.0385683,7.0541637 0 0 0 -2.85515,0.585747 7.1917674,7.2077022 0 0 0 -2.77963,1.950621 6.4214765,6.4357046 0 0 0 -1.35347,2.665289 7.9534677,7.9710902 0 0 0 -0.13416,3.203391 12.338972,12.366311 0 0 0 1.03467,3.416391 11.69754,11.723458 0 0 0 3.09844,4.268384 6.8839374,6.8991902 0 0 0 4.85737,1.261177 c 1.13683,-0.06218 2.2712,-0.130938 3.40326,-0.204591 a 10.473378,10.496584 0 0 1 1.47091,0 2.5012975,2.5068397 0 0 1 1.07382,0.353131 3.7225951,3.7308433 0 0 1 0.90604,0.994928 c 0.29973,0.449614 0.64422,1.043059 1.03747,1.779661 0.33887,0.631373 0.62915,1.211344 0.86971,1.743228 a 3.6953915,3.7035794 0 0 1 0.36632,1.513409 2.375302,2.380565 0 0 1 -0.37193,1.31443 3.6853691,3.6935348 0 0 1 -1.34788,1.14627 2.664519,2.6704228 0 0 1 -2.57829,0.26625 3.9244743,3.9331698 0 0 1 -1.73099,-1.68718 c -0.23386,-0.42952 -0.46532,-0.86056 -0.69631,-1.292 l -3.85067,2.07113 c 0.27491,0.52136 0.55538,1.04161 0.84173,1.56106 a 7.883311,7.9007781 0 0 0 4.58052,3.82557 6.8223714,6.8374878 0 0 0 2.86354,0.25504 7.3020134,7.3181926 0 0 0 2.85235,-0.97811 8.0694408,8.0873203 0 0 0 2.70973,-2.41866 6.3527516,6.3668275 0 0 0 1.08501,-2.87549 8.1395973,8.1576323 0 0 0 -0.33555,-3.133322 17.583535,17.622495 0 0 0 -1.41781,-3.413586 26.726802,26.78602 0 0 0 -1.57437,-2.626052 8.8096645,8.8291841 0 0 0 -1.66667,-1.841319 5.9404027,5.9535649 0 0 0 -2.06655,-0.964102 8.4660403,8.4847986 0 0 0 -2.72092,-0.170958 c -1.20362,0.07749 -2.40744,0.147948 -3.61297,0.212998 a 6.5574944,6.5720239 0 0 1 -1.52964,-0.06726 2.4511857,2.4566168 0 0 1 -1.05146,-0.456826 3.1498882,3.1568674 0 0 1 -0.7802,-0.896837 15.81387,15.848909 0 0 1 -0.73545,-1.426533 9.0330202,9.0530347 0 0 1 -0.54252,-1.488188 3.944519,3.9532589 0 0 1 -0.12857,-1.426533 2.9251007,2.9315819 0 0 1 0.45022,-1.199519 2.6258612,2.6316794 0 0 1 1.18288,-0.927667 2.5886354,2.594371 0 0 1 2.63703,0.07848 5.1371811,5.1485637 0 0 1 1.76734,2.172028 c 0.14216,0.310904 0.2837,0.622368 0.42785,0.93327 l 3.95693,-1.858133 c -0.31021,-0.66103 -0.61648,-1.325826 -0.92001,-1.995463 a 7.0901119,7.1058215 0 0 0 -3.76959,-3.632191 7.9004922,7.9179974 0 0 0 -2.79083,-0.588551 7.0385683,7.0541637 0 0 0 -0.13144,-0.0029 z m 61.41779,61.335266 c 11.33834,0.1322 24.92085,8.53333 36.92952,13.94862 20.22515,9.12048 16.93793,5.84065 16.93793,5.84065 0,0 42.09429,21.89471 20.20972,35.31858 -12.41343,7.61235 -1.06671,12.85393 8.83111,17.58923 7.16169,3.43094 21.59671,1.30859 11.27795,13.81409 18.54569,0.57541 48.37249,-10.40051 48.37249,-10.40051 0,0 8.00843,14.95959 21.15492,18.46084 20.61315,5.48721 17.23493,31.02437 -14.70638,29.13599 0,0 35.91615,8.46808 45.80536,4.34407 9.88922,-4.12545 -35.09619,43.87923 -44.11633,16.55224 -9.02013,-27.32699 -13.58577,-16.9191 -16.89315,-19.74163 0,0 -33.89742,-14.45351 -47.71254,-34.04618 -30.16591,-1.43637 -29.6206,-3.4319 -39.90213,-2.53076 -10.28151,0.90114 -22.88078,5.0022 -39.32606,-10.76205 -16.44528,-15.76425 -36.68493,-34.87955 -25.76342,-62.57963 4.43686,-11.25315 11.1432,-15.03401 18.90101,-14.94355 z m -198.048107,8.96838 c 11.382557,-0.21222 15.469457,10.42122 18.347317,18.77472 3.83714,11.138 31.91058,67.36584 40.53411,75.52491 8.62354,8.15907 26.45974,27.52731 26.45974,27.52731 0,0 -29.19752,20.22955 -49.11913,11.7878 -19.92161,-8.44175 -43.56329,-56.469 -49.918904,-68.04752 -6.355616,-11.57853 -22.908612,-49.38274 -0.343959,-61.25399 5.641163,-2.96782 10.246644,-4.2425 14.040826,-4.31323 z m 195.953577,20.01909 -2.61186,2.54196 16.3367,26.61646 3.13477,-3.04925 -3.63812,-5.59683 4.27292,-4.16188 5.481,3.80876 3.13477,-3.04925 z m 4.82103,7.54464 9.22819,6.4264 -3.13198,3.04925 -6.15773,-9.41679 z m -204.558163,3.06045 a 7.5239373,7.5406082 0 0 0 -3.204698,0.72588 l -6.026286,2.357 11.040269,28.42134 5.668348,-2.21687 a 8.2011633,8.2193347 0 0 0 4.82942,-4.0722 8.4774944,8.4962781 0 0 0 -0.35235,-6.64501 l -5.16219,-13.29001 a 8.1095302,8.1274986 0 0 0 -3.926181,-4.7196 7.5239373,7.5406082 0 0 0 -2.866332,-0.56053 z m -0.338368,4.22354 a 3.1097987,3.1166891 0 0 1 1.373044,0.31671 4.6017003,4.6118963 0 0 1 1.686242,2.33178 l 5.318795,13.69077 -0.006,-0.003 a 4.4384787,4.4483131 0 0 1 0.33558,2.97638 3.2472484,3.2544433 0 0 1 -2.10011,1.81049 l -1.876401,0.73148 -8.064882,-20.75617 1.876398,-0.73149 a 3.1097987,3.1166891 0 0 1 1.456936,-0.36715 z m 256.621921,75.06529 c 2.75981,0.0413 5.30763,0.82361 7.40212,2.68491 11.17065,9.92692 27.15457,43.16331 23.28021,56.96599 -3.87436,13.80269 -21.77125,27.44407 -30.79138,18.37956 -9.02014,-9.06595 -19.59028,-26.10502 -27.76566,-64.48822 0,0 15.91557,-13.72128 27.87471,-13.54224 z m 184.37082,5.15963 c 15.55463,0.0156 18.8531,20.93031 11.7841,32.76538 -7.80026,13.05939 -28.24481,49.66156 -42.40212,70.14389 -14.15731,20.48233 -44.49217,33.68756 -57.98658,32.36741 -31.18962,-3.05068 -36.60515,-42.93328 -36.60515,-42.93328 21.51517,4.49997 18.77384,10.7054 32.25393,17.00909 10.11257,-4.07523 29.35297,-4.30425 38.58501,-26.98921 8.39876,-20.63587 -17.15883,-30.49806 -17.15883,-30.49806 a 44.851544,44.950922 0 0 0 14.98601,-9.96612 c 6.18523,-6.63945 31.33093,-36.09431 51.3227,-41.20126 1.87356,-0.47892 3.61182,-0.69948 5.22093,-0.69784 z m -103.35571,4.90176 5.90324,1.8105 c 0,0 5.9529,25.14918 14.85458,40.14467 a 9.9221477,9.9441323 0 0 1 0.003,-0.003 v 0.006 c 0,0 -0.003,-0.003 -0.003,-0.003 a 9.9221477,9.9441323 0 0 0 -2.44128,3.78074 c 0,0 -13.67332,-27.90822 -18.31654,-45.73591 z m -278.38647,43.70401 c 0,0 40.78358,27.76496 50.5425,30.06086 9.75893,2.30308 29.74566,1.53097 36.18288,2.0375 0,0 -25.11283,19.44626 -50.96196,8.31257 -15.15955,-17.15614 -31.69719,-37.00439 -35.76342,-40.41093 z m 302.90829,8.1444 c 4.53296,0.82078 9.96291,-1.65475 18.1068,13.64315 8.1439,15.29789 -13.47578,28.51465 -32.57271,33.20259 -14.02988,-13.38224 -27.36295,-16.64754 -27.36295,-16.64754 v -0.006 c 6.33986,-3.37641 36.79046,-26.78461 41.82886,-30.19259 z m 84.1331,6.19099 21.92952,5.45389 -5.18456,4.2908 8.55986,10.3949 -10.37195,8.57882 -8.55983,-10.39491 -5.18737,4.2908 z m 54.03244,5.44548 c 18.85494,10.99594 26.28308,23.01381 11.44855,28.09062 -14.83454,5.07682 -33.92287,8.36557 -48.68009,6.10411 0,0 30.42049,-23.09744 37.23154,-34.19473 z m -510.288036,10.44536 5.942393,12.37074 a 100.91526,101.13886 0 0 0 -35.1566,28.08783 l -10.715884,-8.562 c 1.519583,-1.90847 3.095647,-3.76282 4.725951,-5.56319 l 6.786914,6.16856 A 105.42532,105.65892 0 0 1 82.963397,352.08747 L 78.47794,344.0776 c 2.114243,-1.191 4.269948,-2.31353 6.465324,-3.37155 z m 164.323266,9.29908 c 0,0 6.63129,30.87927 32.12249,51.26546 0,0 -24.08313,25.45953 -47.57271,10.96664 -23.48957,-14.49289 -34.06265,-39.06595 -39.93289,-51.07209 12.81145,5.64649 34.68692,4.48944 55.38311,-11.16001 z m 158.52629,13.67957 c 6.92403,25.05835 22.54924,41.01557 45.08669,38.41546 22.28259,-2.57285 35.32107,-4.58095 62.24831,-17.79102 26.04385,-12.77812 19.64823,60.90337 38.11802,96.13257 18.47409,35.23064 12.05127,60.96387 12.04697,60.96531 -26.96017,-11.53692 -53.61638,-14.76183 -72.20356,-21.49887 -18.58721,-6.73704 -38.27559,-16.98141 -52.13367,-31.19592 -13.85808,-14.21451 -15.85571,-18.5283 -34.64766,-27.12933 -1.99588,-17.43165 3.5039,-24.16136 3.5039,-24.16136 -22.31552,-39.78227 -2.019,-73.73684 -2.019,-73.73684 z m 210.9396,0.63058 c 0,0 2.90704,5.26076 0.57326,15.05566 -2.33379,9.7949 0.50705,23.08282 -1.08222,35.25971 -1.58926,12.1769 -9.60836,19.0078 -31.98545,9.60177 -22.37709,-9.40603 -48.10683,-49.69599 -48.10683,-49.69599 a 44.699776,44.798818 0 0 1 10.89206,-1.83572 c 43.24939,4.76113 69.70918,-8.38543 69.70918,-8.38543 z m -604.941282,0.44281 c 5.096293,-0.4184 9.056869,11.18781 18.238256,22.1659 10.131185,12.11376 42.470515,80.90941 51.543624,101.8667 9.07311,20.95731 12.361588,27.44155 23.218682,30.74191 -5.45503,6.82744 7.13311,50.63295 18.73042,78.21823 14.33916,34.10278 -19.49742,43.46577 -14.39317,41.85147 17.41029,-5.51017 34.14366,-24.89979 37.51118,-28.96785 a 6.8839374,6.8991902 0 0 1 0.61521,-0.75109 c 0,0 -0.21431,0.26608 -0.61521,0.75109 -1.39597,1.89986 -5.00335,7.84338 -9.15547,22.77967 -5.32475,19.18084 -1.37025,23.52236 -1.37025,23.52236 13.04197,-43.83884 24.30964,-56.37192 26.50168,-49.79129 2.19203,6.58064 -12.38855,20.32113 -9.86578,35.47553 2.52278,15.1544 13.434,14.15042 13.434,14.15042 -9.34228,38.05173 -4.89653,62.56281 -4.89653,62.56281 -0.15607,-28.46203 13.91219,-61.41654 13.91219,-61.41654 7.96492,1.21826 13.49553,24.52289 13.49553,24.52289 a 210.54998,211.0165 0 0 0 -5.43066,56.89592 c 2.47268,-28.3128 19.84901,-66.06048 19.84901,-66.06048 11.44268,-0.56967 62.66777,78.10332 62.66777,78.10332 l 5.06152,15.14254 -20.05592,33.96772 c 4.30677,-2.53985 25.77183,-24.13054 25.77183,-24.13054 l 5.83333,14.73056 -13.92619,21.29148 c 0,0 8.20536,-6.6794 20.28804,-16.75124 12.72841,27.75604 24.0013,27.84357 39.2897,17.21927 15.28841,-10.62429 50.27751,-71.55613 57.5867,-143.13523 7.30918,-71.5791 -23.82461,-131.08688 -36.86802,-156.25429 34.5099,-10.94859 62.17066,15.16691 77.95303,40.73323 15.78237,25.56632 32.94183,36.95531 32.94183,36.95531 -9.64295,-10.35596 -13.27136,-18.68563 -28.92058,-48.01723 -15.64922,-29.3316 -33.64893,-41.40044 -57.1113,-50.83947 12.07553,-14.20734 35.84918,-18.28409 50.92282,-1.84972 15.07366,16.43436 45.31984,48.62844 78.14597,48.55813 a 132.73342,133.02752 0 0 1 58.35012,14.01307 c 9.97656,54.16754 16.56056,41.67407 -1.46252,83.02473 -16.50542,37.86806 -21.3384,15.11135 -35.28525,18.29548 -11.90802,2.71921 -2.39576,37.36749 -2.54754,70.72123 -0.14317,31.36778 -35.00789,51.84607 -39.62248,64.20233 -9.03016,24.18304 31.93737,56.19622 29.81265,68.35303 -43.09906,-15.65089 -39.25319,-25.57836 -72.96701,-76.08824 26.74827,84.04298 71.84842,86.09638 71.84842,86.09638 0,0 -14.67527,2.52818 -42.25111,-10.69479 -27.57584,-13.22297 -57.33781,-4.64394 -57.33781,-4.64394 7.63705,0.21382 33.4841,0.50121 53.42002,12.18018 19.93594,11.67898 44.12193,15.14815 44.12193,15.14815 0,0 4.94196,55.98987 4.61409,59.79102 -29.04198,25.68399 -127.77299,39.79612 -162.23992,28.65955 -8.90416,-2.87705 -14.63828,-8.64696 -17.06656,-17.45749 -2.42828,-8.81053 -10.51275,-51.13424 -20.13422,-75.74632 -9.62148,-24.61209 -11.40006,-26.6169 -21.04587,-37.83813 -9.64582,-11.22123 -30.94203,-20.55255 -49.86857,-34.3825 C 226.10622,788.80337 197.02474,760.05583 185.17257,751.27256 173.3204,742.4893 122.8664,681.93318 114.05959,671.22422 105.25279,660.51527 94.496016,615.70066 90.849304,585.48657 87.202594,555.27248 84.269215,555.29835 80.217313,534.66394 76.165413,514.0295 68.511071,511.07439 66.142927,502.52071 63.774785,493.96704 45.240244,447.42527 32.927046,423.10017 20.613845,398.77507 6.2088344,368.64412 12.166417,365.2878 c 0.558525,-0.31467 1.097519,-0.48642 1.624721,-0.52971 z m 285.816552,46.62994 c 0,0 16.5983,22.59831 6.51006,42.11493 -10.08823,19.51661 -5.03065,33.46618 -39.81543,24.67143 -7.39937,-23.49714 -8.15964,-32.63419 -16.82327,-48.5161 a 74.912931,75.078916 0 0 0 50.12864,-18.27026 z m -34.96364,73.19875 c 1.35547,-0.032 2.81029,0.14277 4.368,0.56612 16.61568,4.51576 27.76007,1.0706 27.76007,1.0706 0,0 -25.72604,14.32034 -49.15547,18.25064 0,0 3.92451,-19.57767 17.0274,-19.88736 z m 151.09339,74.03111 c 4.41557,88.58457 -21.37116,161.99328 -23.42002,182.41391 -2.04885,20.42063 -13.71363,69.23584 -13.71363,69.23584 4.0705,-16.1732 18.44684,-40.90219 20.4642,-64.903 2.01736,-24.0008 10.05233,-49.37093 13.6661,-71.19206 0,0 2.6983,48.61979 15.47539,73.01376 -9.53061,-27.60673 -8.79116,-78.90143 -8.58501,-94.51824 0.20617,-15.61789 -3.88703,-94.05021 -3.88703,-94.05021 z"
        style="display:inline; fill:#181818; fill-opacity:1;"
        id="path-logo" />
</svg>
