<svg width="657" height="1000" viewBox="0 0 657 1000" fill="none" xmlns="http://www.w3.org/2000/svg">
<path id="GameclawLogoSVG" fill-rule="evenodd" clip-rule="evenodd" d="M656.321 325.252C654.155 346.534 651.959 361.528 651.45 381.353C650.94 401.177 640.279 426.461 628.61 454.922C624.467 465.021 617.34 512.05 627.242 557.714C637.145 603.378 646.848 638.731 638.493 680.059C630.137 721.387 608.056 792.167 614.395 844.967C617.36 869.723 620.145 883.519 624.398 907.87C631.844 943.435 356.28 1051.5 336.788 970.658C329.32 935.991 319.594 886.154 301.806 852.521C292.144 834.253 268.994 827.385 237.795 804.783C198.54 776.347 146.946 719.155 132.282 701.314C117.618 683.472 103.26 674.054 95.7264 639.977C88.1927 605.901 71.663 548.906 71.9545 533.699C71.9545 533.699 37.3299 443.79 4.46809 385.248C-10.8048 358.041 12.6605 293.82 81.0523 324.24C136.195 348.765 175.017 425.747 177.881 456.106C188.999 471.884 203.313 522.379 204.303 546.856C211.741 545.948 209.847 551.977 213.473 541.736C217.098 531.495 226.935 512.373 238.802 505.486C246.052 495.068 245.74 485.721 258.53 480.14C254.175 461.153 241.566 446.29 239.52 423.849C215.918 415.145 196.173 383.647 180.13 349.381C164.086 315.115 154.014 331.779 134.699 285.329C115.441 269.145 91.9411 241.977 70.5879 201.976C49.2348 161.976 98.196 117.763 141.388 152.464C149.441 158.934 154.315 176.921 186.975 199.093C203.761 210.485 219.331 235.864 224.278 243.185C229.224 250.506 236.648 258.616 244.287 268.722C251.927 278.828 265.696 288.687 277.7 298.036C289.704 307.386 296.981 330.056 340.911 364.779C346.083 355.815 349.069 352.446 341.723 338.336C334.377 324.226 315.752 284.963 309.814 251.244C293.636 229.645 269.405 201.974 253.26 156.934C239.144 140.763 204.34 102.519 194.388 63.8562C184.437 25.1937 200.478 10.4249 216.021 4.79683C246.834 -6.3594 270.852 0.823869 288.293 38.2376C297.377 57.7141 307.806 72.8991 327.661 94.6107C347.517 116.322 349.797 126.944 349.797 126.944C349.797 126.944 374.174 126.904 390.116 134.753C397.122 138.202 435.224 137.835 456.247 157.58C474.973 165.472 488.09 166.205 511.419 196.142C534.747 226.079 547.056 222.527 555.051 258.672C575.815 260.668 581.135 261.815 607.738 275.765C634.341 289.714 658.487 303.969 656.321 325.252ZM554.471 480.448C535.954 445.217 542.373 371.541 516.269 384.318C489.287 397.528 476.22 399.538 453.88 402.11C431.29 404.71 415.637 388.75 408.7 363.692C408.7 363.692 388.355 397.649 410.716 437.431C410.716 437.431 405.206 444.161 407.202 461.588C426.039 470.189 428.045 474.497 441.941 488.717C455.836 502.937 475.561 513.174 494.188 519.913C512.815 526.652 539.528 529.875 566.55 541.412C566.55 541.408 572.989 515.673 554.471 480.448ZM85.1261 340.705C82.93 341.763 80.7708 342.888 78.6486 344.08C80.1479 346.749 81.648 349.418 83.1487 352.086C73.238 357.656 64.2909 364.789 56.6526 373.209L49.8487 367.038C48.2156 368.839 46.638 370.693 45.116 372.601C48.6957 375.456 52.2757 378.311 55.856 381.165C65.337 369.275 77.3776 359.676 91.0816 353.084C89.0971 348.957 87.1119 344.831 85.1261 340.705ZM248.164 504.475C271.645 500.545 297.427 486.227 297.427 486.227C297.427 486.227 286.26 489.669 269.606 485.155C252.953 480.641 248.164 504.475 248.164 504.475ZM158.257 241.099C149.614 232.941 121.478 176.713 117.629 165.577C113.779 154.441 107.784 139.243 85.17 151.114C62.5561 162.985 79.1357 200.791 85.5134 212.368C91.8911 223.945 115.579 271.974 135.545 280.416C155.51 288.858 184.773 268.627 184.773 268.627C184.773 268.627 166.898 249.258 158.257 241.099ZM205.151 340.542C195.369 338.24 154.496 310.481 154.496 310.481C158.571 313.888 175.144 333.74 190.333 350.892C216.239 362.026 241.408 342.579 241.408 342.579C234.965 342.072 214.932 342.844 205.151 340.542V340.542ZM249.816 350.005C229.075 365.654 207.15 366.813 194.315 361.166C200.199 373.173 210.793 397.745 234.334 412.239C257.874 426.732 282.016 401.27 282.016 401.27C256.462 380.884 249.816 350.005 249.816 350.005V350.005ZM300.27 411.387C277.176 431.562 250.029 429.661 250.029 429.661C258.714 445.543 259.473 454.677 266.889 478.175C301.751 486.969 296.683 473.02 306.793 453.504C316.903 433.987 300.27 411.387 300.27 411.387V411.387ZM376.456 492.293C399.97 501.733 418.013 513.802 433.695 543.134C449.378 572.466 453.011 580.795 462.674 591.149C462.674 591.149 445.484 579.758 429.663 554.191C413.841 528.625 386.122 502.51 351.536 513.463C364.608 538.63 395.812 598.139 388.486 669.713C381.16 741.286 346.092 802.231 330.77 812.859C315.448 823.487 304.149 823.396 291.393 795.632C279.283 805.706 271.061 812.382 271.061 812.382L285.017 791.092L279.171 776.363C279.171 776.363 257.659 797.945 253.345 800.481L273.446 766.513L268.373 751.372C268.373 751.372 217.033 672.696 205.567 673.266C205.567 673.266 188.153 711.016 185.674 739.328C184.898 720.203 186.728 701.061 191.114 682.429C191.114 682.429 185.572 659.125 177.588 657.907C177.588 657.907 163.491 690.861 163.648 719.32C163.648 719.32 159.193 694.808 168.556 656.76C168.556 656.76 157.621 657.759 155.092 642.611C152.564 627.462 167.171 613.715 164.975 607.134C162.778 600.554 151.486 613.087 138.415 656.92C138.415 656.92 134.453 652.579 139.789 633.399C143.946 618.461 147.565 612.518 148.964 610.618C149.363 610.134 149.58 609.865 149.58 609.865C149.357 610.101 149.151 610.353 148.964 610.618C145.59 614.686 128.818 634.077 111.367 639.584C106.251 641.199 140.163 631.831 125.792 597.732C114.167 570.147 101.555 526.342 107.025 519.514C96.1446 516.209 92.8505 509.731 83.7546 488.774C74.6587 467.817 42.2501 399.019 32.1021 386.905C21.9541 374.79 18.1598 361.925 12.1894 365.281C6.21898 368.637 20.6544 398.768 32.9985 423.093C45.3427 447.417 63.9167 493.967 66.2835 502.517C68.6503 511.067 76.3297 514.024 80.3895 534.66C84.4493 555.295 87.3891 555.267 91.0437 585.481C94.6982 615.694 105.481 660.512 114.307 671.221C123.134 681.93 173.702 742.487 185.581 751.269C197.46 760.051 226.608 788.803 245.575 802.63C264.541 816.458 285.886 825.789 295.554 837.013C305.222 848.237 307.005 850.242 316.652 874.854C326.299 899.466 334.397 941.788 336.831 950.599C339.265 959.409 345.011 965.184 353.934 968.059C388.473 979.199 487.424 965.084 516.533 939.397C516.862 935.595 511.911 879.603 511.911 879.603C511.911 879.603 487.674 876.133 467.689 864.453C447.705 852.774 421.81 852.489 414.154 852.275C414.154 852.275 443.981 843.696 471.612 856.919C499.243 870.141 513.967 867.614 513.967 867.614C513.967 867.614 468.757 865.56 441.955 781.515C475.745 832.019 471.892 841.953 515.085 857.604C517.211 845.447 476.154 813.434 485.208 789.252C489.83 776.895 524.768 756.415 524.918 725.047C525.068 691.693 515.534 657.045 527.463 654.326C541.448 651.141 546.29 673.899 562.831 636.03C580.899 594.679 574.3 607.173 564.298 553.004C546.131 543.93 526.128 539.137 505.822 538.991C472.92 539.061 442.604 506.869 427.5 490.434C412.397 473.999 388.558 478.085 376.456 492.293ZM352.199 334.745C361.244 343.811 379.18 330.167 383.06 316.365C386.94 302.562 370.923 269.325 359.727 259.399C348.53 249.472 324.373 270.257 324.373 270.257C332.565 308.64 343.151 325.679 352.196 334.745H352.199ZM254.51 41.8112C249.455 21.3764 236.535 6.45489 221.868 12.0869C207.201 17.7189 198.742 35.6501 200.938 51.9473C203.134 68.2444 222.974 117.647 238.539 127.84C248.988 134.682 269.213 124.745 281.276 110.829C293.338 96.9126 259.566 62.246 254.51 41.8112ZM492.98 265.883C483.068 270.008 447.072 261.54 447.072 261.54C479.085 263.429 482.469 237.891 461.816 232.402C448.639 228.903 440.603 213.943 440.603 213.943C440.603 213.943 410.716 224.924 392.129 224.344C402.472 211.838 388.003 213.962 380.826 210.531C370.907 205.791 359.533 200.549 371.974 192.939C393.908 179.516 351.721 157.62 351.721 157.62C351.721 157.62 355.015 160.897 334.744 151.777C314.473 142.658 289.737 125.073 278.79 152.776C267.843 180.479 288.13 199.593 304.611 215.356C321.092 231.119 333.72 227.018 344.023 226.123C354.327 225.227 353.781 227.221 384.015 228.655C397.861 248.248 431.839 262.701 431.839 262.701C435.143 265.524 439.725 255.114 448.769 282.442C457.813 309.769 502.893 261.758 492.98 265.883ZM416.156 348.818C416.156 348.818 429.523 352.082 443.578 365.461C462.714 360.769 484.386 347.556 476.23 332.259C468.074 316.961 462.624 319.437 458.072 318.616C453.031 322.034 422.505 345.442 416.156 348.818V348.818ZM454.309 308.727C445.385 293.732 439.415 268.58 439.415 268.58L433.496 266.77C438.158 284.597 451.853 312.507 451.853 312.507C451.853 312.507 452.073 311.306 454.309 308.727ZM531.851 262.571C511.817 267.68 486.612 297.135 480.413 303.774C474.214 310.413 465.389 313.737 465.389 313.737C465.389 313.737 491.004 323.6 482.589 344.236C473.335 366.921 454.049 367.151 443.917 371.226C430.411 364.923 433.156 358.716 411.595 354.217C411.595 354.217 417.015 394.099 448.28 397.151C461.806 398.47 492.202 385.272 506.387 364.785C520.571 344.298 541.075 307.7 548.891 294.64C556.707 281.58 551.886 257.463 531.851 262.571ZM596.547 330.256C589.729 341.35 559.233 364.454 559.233 364.454C574.017 366.715 593.153 363.428 608.007 358.352C622.86 353.276 615.443 341.258 596.547 330.256ZM620.095 364.316C620.095 364.316 593.582 377.462 550.239 372.701C546.537 372.859 542.869 373.476 539.318 374.538C539.318 374.538 565.103 414.827 587.523 424.233C609.943 433.638 617.989 426.806 619.586 414.631C621.183 402.455 618.328 389.167 620.664 379.372C623 369.577 620.095 364.316 620.095 364.316ZM313.168 183.175L308.887 187.33L312.533 192.92L309.392 195.97L293.021 169.353L295.638 166.813L321.807 183.921L318.664 186.971L313.168 183.175ZM300.467 174.367L300.406 174.427L306.573 183.845L309.715 180.795L300.467 174.367ZM250.477 104.092C249.768 105.094 248.839 105.921 247.763 106.511C246.889 107.033 245.915 107.367 244.905 107.491C243.939 107.611 242.959 107.524 242.03 107.234C240.055 106.612 238.404 105.239 237.432 103.41C237.149 102.89 236.867 102.37 236.588 101.849L240.447 99.7785C240.678 100.211 240.911 100.644 241.146 101.076C241.532 101.807 242.14 102.398 242.882 102.764C243.299 102.943 243.755 103.012 244.206 102.966C244.658 102.919 245.09 102.759 245.462 102.499C245.999 102.232 246.463 101.839 246.814 101.354C247.064 100.961 247.193 100.504 247.187 100.038C247.173 99.5138 247.048 98.9984 246.821 98.5257C246.579 97.9933 246.289 97.4117 245.949 96.7808C245.555 96.0441 245.208 95.4508 244.908 95.001C244.668 94.6181 244.361 94.2816 244.002 94.0077C243.674 93.8098 243.306 93.6889 242.924 93.6544C242.434 93.6203 241.942 93.6203 241.451 93.6544C240.315 93.7282 239.178 93.7948 238.039 93.854C236.315 94.0607 234.577 93.6102 233.171 92.5923C231.825 91.4237 230.764 89.9639 230.067 88.3238C229.558 87.2414 229.208 86.0908 229.029 84.9079C228.857 83.8419 228.903 82.7521 229.165 81.7045C229.4 80.7224 229.864 79.8096 230.518 79.0403C231.279 78.177 232.234 77.5082 233.306 77.0897C234.249 76.6779 235.271 76.4779 236.3 76.5038C237.26 76.5292 238.207 76.7291 239.095 77.0937C240.771 77.7788 242.122 79.0777 242.873 80.7253C243.177 81.3908 243.484 82.0562 243.794 82.7217L239.829 84.5784C239.683 84.2683 239.538 83.9572 239.395 83.6451C239.017 82.7711 238.405 82.0192 237.625 81.4729C237.232 81.2244 236.779 81.0861 236.314 81.0726C235.849 81.0591 235.389 81.1708 234.982 81.3961C234.504 81.5827 234.092 81.9047 233.796 82.3224C233.56 82.684 233.407 83.0929 233.346 83.5203C233.302 83.999 233.346 84.4817 233.474 84.9448C233.611 85.4563 233.793 85.9547 234.017 86.4342C234.239 86.9215 234.485 87.3973 234.755 87.8596C234.956 88.2062 235.221 88.5111 235.537 88.758C235.846 88.9921 236.207 89.1491 236.59 89.2162C237.097 89.2987 237.612 89.3211 238.124 89.2831C239.333 89.2166 240.54 89.1454 241.746 89.0695C242.655 88.9795 243.574 89.0371 244.465 89.2402C245.211 89.4244 245.914 89.7519 246.535 90.2045C247.176 90.7369 247.738 91.3569 248.206 92.0462C248.781 92.891 249.309 93.7675 249.785 94.6716C250.377 95.7567 250.854 96.901 251.208 98.0855C251.522 99.0986 251.636 100.163 251.544 101.22C251.426 102.249 251.06 103.234 250.477 104.09V104.092ZM232.57 66.7371C229.098 60.6891 225.866 54.4558 222.874 48.0372L222.791 48.0612C223.646 55.0874 224.804 62.1059 226.264 69.1168L222.409 70.5743C217.035 60.6503 212.314 50.3863 208.277 39.8477L212.787 38.7736C215.121 45.4631 217.713 52.0128 220.562 58.4228L220.644 58.3958C219.579 51.4129 218.811 44.4313 218.34 37.451L221.597 36.6753C224.358 43.1825 227.37 49.5103 230.632 55.6587L230.714 55.6317C229.254 48.8997 228.08 42.1347 227.191 35.3367L231.7 34.2626C232.602 44.6944 234.18 55.0565 236.425 65.2836L232.57 66.7371ZM429.163 747.195C416.356 722.798 413.651 674.182 413.651 674.182C410.027 696.003 401.972 721.373 399.951 745.374C397.931 769.376 383.522 794.104 379.443 810.277C379.443 810.277 391.136 761.464 393.189 741.041C395.243 720.618 421.088 647.207 416.656 558.627C416.656 558.627 420.758 637.059 420.559 652.676C420.359 668.292 419.61 719.59 429.163 747.195ZM102.942 206.709L97.2617 208.929L86.1953 180.508L92.2346 178.154C93.182 177.704 94.213 177.456 95.2615 177.427C96.3101 177.399 97.3531 177.589 98.3237 177.987C100.202 178.984 101.614 180.679 102.257 182.706L107.433 195.998C108.469 198.66 108.587 200.875 107.786 202.642C107.287 203.606 106.601 204.462 105.77 205.16C104.938 205.858 103.977 206.384 102.941 206.709H102.942ZM103.506 197.983L98.174 184.292C97.8743 183.355 97.2819 182.538 96.484 181.963C96.041 181.746 95.5528 181.637 95.0596 181.646C94.5664 181.654 94.0823 181.78 93.647 182.012L91.7674 182.744L99.853 203.502L101.733 202.768C102.195 202.64 102.624 202.412 102.988 202.099C103.352 201.786 103.642 201.397 103.838 200.958C104.074 199.958 103.956 198.907 103.505 197.983H103.506ZM557.356 353.535L548.782 343.139L543.581 347.432L542.393 324.819L564.374 330.27L559.173 334.562L567.758 344.958L557.356 353.535Z" fill="#181818"/>
</svg>
